<?xml version="1.0" standalone="no"?>
<!DOCTYPE svg PUBLIC "-//W3C//DTD SVG 20010904//EN"
 "http://www.w3.org/TR/2001/REC-SVG-20010904/DTD/svg10.dtd">
<svg version="1.0" xmlns="http://www.w3.org/2000/svg"
 width="350.000000pt" height="350.000000pt" viewBox="0 0 350.000000 350.000000"
 preserveAspectRatio="xMidYMid meet">
<metadata>
Created by potrace 1.14, written by Peter Selinger 2001-2017
</metadata>
<g transform="translate(0.000000,350.000000) scale(0.100000,-0.100000)"
fill="#000000" stroke="none">
<path d="M2035 2860 c-132 -132 -248 -240 -257 -240 -31 0 -101 -32 -163 -74
-33 -23 -62 -43 -65 -46 -3 -3 -18 -14 -34 -24 -16 -10 -43 -30 -60 -45 -59
-50 -356 -348 -356 -357 0 -5 26 -27 57 -49 123 -86 192 -134 296 -204 59 -40
107 -76 107 -79 -1 -4 -54 -44 -118 -89 -79 -56 -159 -125 -243 -210 l-126
-128 33 -25 c18 -14 56 -41 84 -60 28 -19 96 -68 152 -109 l101 -73 -224 -224
-224 -224 24 -17 c129 -94 616 -420 666 -446 45 -23 117 -30 174 -18 53 11 62
17 426 256 116 76 260 170 320 210 61 40 173 113 249 163 77 51 150 107 163
125 34 48 41 122 15 179 -22 50 -27 54 -241 194 -79 52 -150 99 -158 106 -11
9 22 35 180 138 174 114 196 132 215 172 28 56 28 110 0 166 -21 45 -38 58
-355 262 -29 18 -53 37 -53 40 0 4 73 54 162 111 247 159 277 195 262 309 -9
58 -62 111 -204 201 -58 37 -177 112 -265 169 -226 144 -227 145 -257 163 -15
10 -31 17 -35 17 -5 0 -116 -108 -248 -240z"/>
</g>
</svg>
